<svg width="103" height="104" viewBox="0 0 103 104" fill="none" xmlns="http://www.w3.org/2000/svg">
<path fill-rule="evenodd" clip-rule="evenodd" d="M91.5729 84C98.6197 75.2252 102.836 64.0801 102.836 51.9502C102.836 23.6602 79.9023 0.726624 51.6122 0.726624C23.3222 0.726624 0.388641 23.6602 0.388641 51.9502C0.388641 64.0801 4.60479 75.2252 11.6515 84H17.3542C9.59082 75.7689 4.7679 64.7341 4.56482 52.5749C4.56039 52.5321 4.55812 52.4887 4.55812 52.4447C4.55812 52.4207 4.5588 52.3969 4.56013 52.3732C4.56055 52.3657 4.56104 52.3583 4.5616 52.3508C4.55929 52.1591 4.55814 51.967 4.55814 51.7747C4.55814 25.831 25.5897 4.79944 51.5334 4.79944C51.8929 4.79944 52.2514 4.80347 52.609 4.81152C52.666 4.80356 52.7242 4.79944 52.7834 4.79944C52.8658 4.79944 52.9464 4.80743 53.0244 4.82266C78.2781 5.61005 98.5087 26.3298 98.5087 51.7747C98.5087 64.2496 93.6459 75.5887 85.7126 84H91.5729ZM79.2886 84C78.9861 83.7719 78.7906 83.4095 78.7906 83.0014C78.7906 82.3111 79.3503 81.7514 80.0406 81.7514H82.3274C89.4495 74.4363 93.9874 64.5926 94.4665 53.6947H92.7993C92.109 53.6947 91.5493 53.1351 91.5493 52.4447C91.5493 51.7544 92.109 51.1947 92.7993 51.1947H94.5048C94.3585 40.1274 90.0285 30.0696 83.0244 22.5307L82.0222 23.5329C81.5341 24.021 80.7426 24.021 80.2545 23.5329C79.7663 23.0447 79.7663 22.2532 80.2545 21.7651L81.2704 20.7491C74.1117 13.8858 64.5822 9.47601 54.0334 8.87094V9.9288C54.0334 10.6191 53.4737 11.1788 52.7834 11.1788C52.093 11.1788 51.5334 10.6191 51.5334 9.9288L51.5334 8.79944C40.2704 8.79944 30.0194 13.1322 22.3562 20.2219L23.2915 21.1572C23.7797 21.6453 23.7797 22.4368 23.2915 22.925C22.8034 23.4131 22.0119 23.4131 21.5238 22.925L20.5709 21.972C13.2566 29.5692 8.71199 39.8517 8.56197 51.1947H9.68748C10.3778 51.1947 10.9375 51.7544 10.9375 52.4447C10.9375 53.1351 10.3778 53.6947 9.68748 53.6947H8.60026C9.07941 64.5926 13.6173 74.4363 20.7394 81.7514H22.4462C23.1365 81.7514 23.6962 82.3111 23.6962 83.0014C23.6962 83.4095 23.5006 83.7719 23.1982 84H79.2886Z" fill="#F7F6ED"/>
<path fill-rule="evenodd" clip-rule="evenodd" d="M11.6515 84C21.0397 95.6904 35.4521 103.174 51.6122 103.174C67.7724 103.174 82.1848 95.6904 91.5729 84H11.6515Z" fill="#F7F6ED"/>
</svg>
