<svg width="103" height="103" viewBox="0 0 103 103" fill="none" xmlns="http://www.w3.org/2000/svg">
<mask id="mask0_582_224" style="mask-type:alpha" maskUnits="userSpaceOnUse" x="0" y="0" width="103" height="87">
<mask id="mask1_582_224" style="mask-type:alpha" maskUnits="userSpaceOnUse" x="0" y="0" width="103" height="103">
<circle cx="51.0348" cy="51.0348" r="51.0348" fill="#1EE494"/>
</mask>
<g mask="url(#mask1_582_224)">
<rect x="-14.4986" y="-3.47968" width="135.706" height="89.8909" fill="#F6F6F6"/>
</g>
</mask>
<g mask="url(#mask0_582_224)">
<g filter="url(#filter0_d_582_224)">
<path fill-rule="evenodd" clip-rule="evenodd" d="M102.447 51.2236C102.447 79.5136 79.5136 102.447 51.2236 102.447C22.9336 102.447 0 79.5136 0 51.2236C0 22.9336 22.9336 0 51.2236 0C79.5136 0 102.447 22.9336 102.447 51.2236ZM52.2203 4.08486C51.8628 4.07682 51.5042 4.07278 51.1447 4.07278C25.201 4.07278 4.16948 25.1043 4.16948 51.048C4.16948 51.2404 4.17064 51.4324 4.17294 51.6242C4.17064 51.6552 4.16946 51.6865 4.16946 51.7181C4.16946 51.762 4.17173 51.8054 4.17616 51.8482C4.6033 77.4228 25.4683 98.0233 51.1447 98.0233C77.0885 98.0233 98.12 76.9918 98.12 51.048C98.12 25.6032 77.8895 4.8834 52.6357 4.096C52.5578 4.08077 52.4772 4.07278 52.3947 4.07278C52.3355 4.07278 52.2773 4.0769 52.2203 4.08486ZM8.2116 52.9681C8.69075 63.866 13.2286 73.7097 20.3507 81.0247H22.0575C22.7479 81.0247 23.3075 81.5844 23.3075 82.2747C23.3075 82.7067 23.0885 83.0874 22.7554 83.312C30.3266 89.9792 40.2634 94.0233 51.1447 94.0233C61.9318 94.0233 71.7907 90.049 79.3368 83.4847C78.799 83.345 78.402 82.8562 78.402 82.2747C78.402 81.5844 78.9616 81.0247 79.652 81.0247H81.9388C89.0609 73.7097 93.5987 63.866 94.0779 52.9681H92.4107C91.7203 52.9681 91.1607 52.4084 91.1607 51.7181C91.1607 51.0277 91.7203 50.4681 92.4107 50.4681H94.1162C93.9698 39.4007 89.6399 29.343 82.6357 21.8041L81.6336 22.8062C81.1454 23.2944 80.354 23.2944 79.8658 22.8062C79.3777 22.3181 79.3777 21.5266 79.8658 21.0384L80.8818 20.0225C73.723 13.1592 64.1936 8.74937 53.6447 8.14429V9.20214C53.6447 9.8925 53.0851 10.4521 52.3947 10.4521C51.7044 10.4521 51.1447 9.8925 51.1447 9.20214L51.1447 8.07278C39.8818 8.07278 29.6308 12.4055 21.9676 19.4952L22.9029 20.4305C23.391 20.9187 23.391 21.7101 22.9029 22.1983C22.4147 22.6864 21.6233 22.6864 21.1351 22.1983L20.1822 21.2454C12.8679 28.8425 8.32334 39.125 8.17331 50.4681H9.29882C9.98918 50.4681 10.5488 51.0277 10.5488 51.7181C10.5488 52.4084 9.98918 52.9681 9.29882 52.9681H8.2116Z" fill="#F7F6ED"/>
</g>
</g>
<defs>
<filter id="filter0_d_582_224" x="-12" y="-6" width="126.447" height="126.447" filterUnits="userSpaceOnUse" color-interpolation-filters="sRGB">
<feFlood flood-opacity="0" result="BackgroundImageFix"/>
<feColorMatrix in="SourceAlpha" type="matrix" values="0 0 0 0 0 0 0 0 0 0 0 0 0 0 0 0 0 0 127 0" result="hardAlpha"/>
<feOffset dy="6"/>
<feGaussianBlur stdDeviation="6"/>
<feComposite in2="hardAlpha" operator="out"/>
<feColorMatrix type="matrix" values="0 0 0 0 0.14902 0 0 0 0 0.372549 0 0 0 0 0.639216 0 0 0 0.36 0"/>
<feBlend mode="normal" in2="BackgroundImageFix" result="effect1_dropShadow_582_224"/>
<feBlend mode="normal" in="SourceGraphic" in2="effect1_dropShadow_582_224" result="shape"/>
</filter>
</defs>
</svg>
