<?xml version="1.0" encoding="UTF-8" standalone="no"?>
<svg
   version="1.1"
   id="Layer_1"
   x="0px"
   y="0px"
   viewBox="0 0 122.88 106.3"
   style="enable-background:new 0 0 122.88 106.3"
   xml:space="preserve"
   sodipodi:docname="speedometer-icon-edit.svg"
   inkscape:version="1.2.2 (732a01da63, 2022-12-09)"
   xmlns:inkscape="http://www.inkscape.org/namespaces/inkscape"
   xmlns:sodipodi="http://sodipodi.sourceforge.net/DTD/sodipodi-0.dtd"
   xmlns="http://www.w3.org/2000/svg"
   xmlns:svg="http://www.w3.org/2000/svg"><defs
     id="defs18"><linearGradient
       id="linearGradient6121"
       inkscape:swatch="solid"><stop
         style="stop-color:#000000;stop-opacity:1;"
         offset="0"
         id="stop6119" /></linearGradient><mask
       maskUnits="userSpaceOnUse"
       id="mask9679"><circle
         style="display:inline;fill:#ff0000;stroke-width:0.942553"
         id="circle9681"
         cx="61.396824"
         cy="61.363773"
         r="62.239803" /></mask></defs><sodipodi:namedview
     id="namedview16"
     pagecolor="#ffffff"
     bordercolor="#000000"
     borderopacity="0.25"
     inkscape:showpageshadow="2"
     inkscape:pageopacity="0.0"
     inkscape:pagecheckerboard="0"
     inkscape:deskcolor="#d1d1d1"
     showgrid="false"
     inkscape:zoom="3.5588158"
     inkscape:cx="14.33061"
     inkscape:cy="69.40511"
     inkscape:window-width="1360"
     inkscape:window-height="715"
     inkscape:window-x="-8"
     inkscape:window-y="-8"
     inkscape:window-maximized="1"
     inkscape:current-layer="layer2" /><g
     inkscape:groupmode="layer"
     id="layer2"
     inkscape:label="Layer 2"
     style="enable-background:new 0 0 122.88 106.3"><path
       d="M 19.33,106.17 C 16.28,103.3 13.53,100.12 11.12,96.69 8.73,93.29 6.68,89.63 5.01,85.78 3.38,82 2.12,78.02 1.26,73.88 0.44,69.86 0,65.7 0,61.44 0,53.12 1.66,45.19 4.65,37.95 7.77,30.43 12.33,23.66 18,18 23.66,12.34 30.43,7.77 37.95,4.66 45.19,1.66 53.12,0 61.44,0 c 8.3,0 16.21,1.66 23.43,4.66 7.52,3.12 14.28,7.7 19.95,13.37 5.68,5.68 10.26,12.46 13.38,19.97 3.01,7.24 4.68,15.16 4.68,23.44 0,4.05 -0.4,8.01 -1.16,11.85 -0.78,3.94 -1.95,7.75 -3.46,11.4 -1.54,3.71 -3.43,7.25 -5.64,10.55 -2.23,3.34 -4.78,6.45 -7.6,9.3 -0.19,0.19 -0.51,0.19 -0.7,0 l -3.07,-3.06 c -0.06,-0.02 -0.12,-0.06 -0.17,-0.11 l -8.56,-8.56 c -0.19,-0.19 -0.19,-0.51 0,-0.7 l 4.49,-4.49 c 0.19,-0.19 0.51,-0.19 0.7,0 l 6.61,6.61 c 1.4,-1.82 2.69,-3.72 3.85,-5.7 1.25,-2.12 2.35,-4.34 3.3,-6.63 1.28,-3.1 2.29,-6.35 2.97,-9.71 0.64,-3.12 1,-6.35 1.07,-9.64 h -9.11 c -0.27,0 -0.5,-0.22 -0.5,-0.5 V 55.7 c 0,-0.27 0.22,-0.5 0.5,-0.5 h 8.76 c -0.68,-5.85 -2.31,-11.43 -4.72,-16.58 -2.49,-5.31 -5.82,-10.15 -9.82,-14.37 l -5.86,5.86 c -0.19,0.19 -0.51,0.19 -0.7,0 l -4.49,-4.49 c -0.19,-0.19 -0.19,-0.51 0,-0.7 l 5.65,-5.65 C 90.78,15.7 85.77,12.81 80.35,10.77 75.1,8.8 69.47,7.62 63.6,7.39 v 8.03 c 0,0.27 -0.22,0.5 -0.5,0.5 h -6.36 c -0.27,0 -0.5,-0.22 -0.5,-0.5 V 7.59 c -5.83,0.55 -11.4,2.04 -16.54,4.29 -5.31,2.33 -10.17,5.49 -14.42,9.3 l 5.87,5.87 c 0.19,0.19 0.19,0.51 0,0.7 l -4.49,4.49 c -0.19,0.19 -0.51,0.19 -0.7,0 l -5.8,-5.8 C 16.43,30.84 13.38,35.85 11.2,41.3 9.1,46.6 7.79,52.29 7.44,58.23 h 9.03 c 0.27,0 0.5,0.22 0.5,0.5 v 6.36 c 0,0.27 -0.22,0.5 -0.5,0.5 H 7.5 c 0.22,2.94 0.68,5.8 1.35,8.58 0.72,3.01 1.7,5.92 2.91,8.72 1.05,2.43 2.27,4.76 3.64,6.98 1.29,2.09 2.72,4.09 4.28,5.97 l 7.24,-7.24 c 0.19,-0.19 0.51,-0.19 0.7,0 l 4.49,4.49 c 0.19,0.19 0.19,0.51 0,0.7 -4.14,4.14 -8.09,8.11 -12.09,12.36 -0.18,0.2 -0.49,0.21 -0.69,0.02 z"
       id="path11"
       sodipodi:nodetypes="ccccscccscscsccccccssssscccccsssscccsssscccsssscccsssscccsssscccccsssscc"
       style="display:inline;fill:#000000;fill-opacity:0;stroke:#000000;stroke-opacity:1"
       inkscape:label="path11"
       mask="url(#mask9679)" /></g><g
     inkscape:groupmode="layer"
     id="layer1"
     inkscape:label="Layer 1"
     style="enable-background:new 0 0 122.88 106.3;display:inline;fill:#ff0000" /></svg>
